<svg width="92" height="179" viewBox="0 0 92 179" fill="none" xmlns="http://www.w3.org/2000/svg">
<path d="M65.0618 122.722C65.0618 117.577 63.6325 113.498 60.774 110.487C57.9777 107.412 53.1928 104.59 46.4195 102.017C39.646 99.4445 33.8048 96.9032 28.8956 94.3938C23.9865 91.8215 19.7609 88.904 16.2189 85.6415C12.7389 82.3162 10.0047 78.4262 8.01621 73.9716C6.08983 69.517 5.12665 64.2154 5.12665 58.0668C5.12665 47.4636 8.48227 38.774 15.1935 31.9979C21.9048 25.2219 30.822 21.2692 41.9453 20.1398V0H56.8592V20.4222C67.8581 21.9907 76.4647 26.6335 82.6788 34.3507C88.893 42.0051 92 51.9496 92 64.1841H65.0618C65.0618 56.6552 63.5082 51.0398 60.4012 47.3381C57.3563 43.5737 53.2549 41.6914 48.0973 41.6914C43.0017 41.6914 39.0557 43.1658 36.2594 46.1147C33.463 49.0008 32.0648 53.0161 32.0648 58.1609C32.0648 62.9292 33.4319 66.7564 36.1662 69.6425C38.9004 72.5286 43.9649 75.4774 51.3597 78.489C58.8166 81.5005 64.9375 84.3553 69.7223 87.0531C74.5073 89.6883 78.5464 92.6998 81.84 96.0878C85.1334 99.4127 87.6501 103.241 89.3901 107.569C91.13 111.836 92 116.824 92 122.533C92 133.199 88.7065 141.857 82.1195 148.508C75.5326 155.159 66.46 159.08 54.9017 160.271V179H40.0811V160.366C27.3421 158.986 17.4616 154.437 10.4397 146.72C3.47991 138.94 0 128.619 0 115.757H26.9382C26.9382 123.223 28.6781 128.965 32.1581 132.979C35.7001 136.933 40.7646 138.909 47.3516 138.909C52.82 138.909 57.1388 137.465 60.308 134.579C63.4772 131.63 65.0618 127.678 65.0618 122.722Z" fill="white"/>
</svg>
