<svg width="98" height="185" viewBox="0 0 98 185" fill="none" xmlns="http://www.w3.org/2000/svg">
<path d="M62.6751 114.508L62.6644 114.496C60.1044 111.681 55.5811 108.962 48.887 106.419C42.0771 103.833 36.1832 101.27 31.2129 98.7295L31.2062 98.726L31.1994 98.7225C26.1913 96.0983 21.8542 93.1082 18.2026 89.7448L18.1925 89.7355L18.1826 89.726C14.5599 86.2643 11.7132 82.213 9.64648 77.5831L9.64291 77.5751L9.63943 77.567C7.61318 72.8815 6.62665 67.3675 6.62665 61.0668C6.62665 50.1166 10.1061 41.0319 17.1277 33.9423L17.1277 33.9423C23.8469 27.1584 32.6549 23.1337 43.4453 21.7992V3V1.5H44.9453H59.8592H61.3592V3V22.1364C72.0773 23.9243 80.6106 28.6664 86.8447 36.4068C93.3232 44.3877 96.5 54.6914 96.5 67.1841V68.6841H95H68.0618H66.5618V67.1841C66.5618 59.8211 65.036 54.619 62.2523 51.3025L62.2435 51.292L62.235 51.2814C59.4955 47.8947 55.836 46.1914 51.0973 46.1914C46.3022 46.1914 42.7925 47.5688 40.3479 50.1468L40.3423 50.1527L40.3367 50.1585C37.8815 52.6924 36.5648 56.2919 36.5648 61.1609C36.5648 65.6267 37.8358 69.0573 40.2551 71.6109C42.7576 74.2524 47.5682 77.1034 54.9243 80.0993C54.9247 80.0994 54.9251 80.0996 54.9255 80.0998L54.3597 81.489C61.8166 84.5005 67.9375 87.3553 72.7223 90.0531L62.6751 114.508ZM62.6751 114.508L62.6861 114.519C65.2202 117.189 66.5618 120.864 66.5618 125.722C66.5618 130.324 65.1073 133.853 62.2926 136.475C59.4697 139.043 55.5495 140.409 50.3516 140.409C44.0856 140.409 39.4741 138.543 36.2833 134.987C33.1254 131.338 31.4382 126.001 31.4382 118.757V117.257H29.9382H3H1.5V118.757C1.5 131.898 5.06221 142.605 12.3218 150.72L12.3303 150.729C19.3989 158.498 29.1986 163.12 41.5811 164.699V182V183.5H43.0811H57.9017H59.4017V182V164.611C70.5911 163.233 79.5631 159.25 86.1853 152.563C93.0899 145.592 96.5 136.535 96.5 125.533C96.5 119.676 95.608 114.489 93.7804 110.006C91.9666 105.495 89.3409 101.502 85.9104 98.0371C82.5013 94.5313 78.3423 91.4364 73.4524 88.7427L62.6751 114.508Z" fill="white" stroke="white" stroke-width="3"/>
</svg>
