<?xml version="1.0" encoding="utf-8"?>
<!-- Generator: Adobe Illustrator 25.0.0, SVG Export Plug-In . SVG Version: 6.00 Build 0)  -->
<svg version="1.1" baseProfile="basic" id="Camada_1"
	 xmlns="http://www.w3.org/2000/svg" xmlns:xlink="http://www.w3.org/1999/xlink" x="0px" y="0px" viewBox="0 0 1024 1024"
	 xml:space="preserve">
<style type="text/css">
	.st0{fill:#3700B3;}
	.st1{fill:#03DAC6;}
	.st2{fill:#121214;}
	.st3{fill:#0B0B0C;}
	.st4{fill:#BB86FC;}
</style>
<path class="st0" d="M758.4,421.6L368.8,448c-42.8,2.9-79.9-29.5-82.8-72.3l-11.5-170.3c-2.9-42.8,29.5-79.9,72.3-82.8l389.6-26.4
	c42.8-2.9,79.9,29.5,82.8,72.3l11.5,170.3C833.6,381.6,801.3,418.7,758.4,421.6z"/>
<rect x="275.5" y="184.8" transform="matrix(0.9977 -6.763361e-02 6.763361e-02 0.9977 -13.0619 37.5812)" class="st1" width="546" height="53.8"/>
<path class="st2" d="M223.2,837.3c-43.8,0-79.3-35.6-79.3-79.3V288.3c0-43.8,35.6-79.4,79.3-79.4h591.3c43.8,0,79.3,35.6,79.3,79.4
	v469.6c0,43.8-35.6,79.3-79.3,79.3L223.2,837.3L223.2,837.3z"/>
<path class="st3" d="M814.5,234c30,0,54.3,24.4,54.3,54.3v469.6c0,30-24.4,54.3-54.3,54.3H223.2c-30,0-54.3-24.4-54.3-54.3V288.3
	c0-30,24.4-54.4,54.3-54.4L814.5,234 M814.5,184H223.2c-57.6,0-104.3,46.7-104.3,104.4V758c0,57.6,46.7,104.3,104.3,104.3h591.3
	c57.6,0,104.3-46.7,104.3-104.3V288.3C918.8,230.7,872.1,184,814.5,184L814.5,184z"/>
<path class="st4" d="M434,448.2c-28.8,0-52.2,23.4-52.2,52.2v121.7c0,28.8,23.4,52.2,52.2,52.2h434.8V448.2H434z M494.9,622.1
	c-33.6,0-60.9-27.3-60.9-60.9c0-33.6,27.2-60.9,60.9-60.9c33.6,0,60.9,27.3,60.9,60.9C555.7,594.9,528.5,622.1,494.9,622.1z"/>
</svg>
